<?xml version="1.0" encoding="UTF-8" standalone="no"?>
<svg
   version="1.1"
   width="15.7480in"
   height="11.8110in"
   viewBox="0 0 1133.8583 850.3937"
   id="svg29"
   sodipodi:docname="Tut Wuri Handayani.cdr"
   xmlns:inkscape="http://www.inkscape.org/namespaces/inkscape"
   xmlns:sodipodi="http://sodipodi.sourceforge.net/DTD/sodipodi-0.dtd"
   xmlns="http://www.w3.org/2000/svg"
   xmlns:svg="http://www.w3.org/2000/svg">
  <defs
     id="defs29" />
  <sodipodi:namedview
     id="namedview29"
     pagecolor="#ffffff"
     bordercolor="#000000"
     borderopacity="0.25"
     inkscape:showpageshadow="2"
     inkscape:pageopacity="0.0"
     inkscape:pagecheckerboard="0"
     inkscape:deskcolor="#d1d1d1"
     inkscape:document-units="in" />
  <g
     id="Layer1000">
    <path
       d="  M0.0000,0.0000 L0.0000,850.3937 L1133.8583,850.3937 L1133.8583,0.0000 L0.0000,0.0000 Z"
       style="fill: none; "
       id="path1" />
    <g
       id="Layer1001">
      <path
         d="  M932.1825,328.4026 C932.5293,483.5865 880.8415,624.6792 794.4341,752.6391 L792.8430,754.9962 L790.1402,755.8805 C642.6581,804.1659 492.4981,798.6072 344.0985,755.9701 L341.3653,755.1848 L339.6885,752.8880 C248.1941,627.5451 207.0785,483.0180 201.7708,328.7068 L201.6729,325.8646 L203.3393,323.5601 C294.2734,197.8096 419.0223,114.0442 564.1412,61.3117 L566.8141,60.3405 L569.5202,61.2133 C717.2163,108.8372 835.4309,201.5975 930.4266,323.3173 L932.1759,325.5593 L932.1825,328.4026 Z"
         style="fill-rule: evenodd; fill: #1b1918; "
         id="path2" />
      <path
         d="  M566.9745,69.1087 C705.8704,113.8954 824.2852,200.8000 923.8867,328.4214 C924.2130,474.3588 878.1559,613.8327 787.5591,747.9967 C648.8634,793.4052 501.9830,792.7006 346.3892,747.9967 C260.3458,630.1218 215.6265,490.2132 210.0617,328.4214 C295.5775,210.1632 414.8202,124.3979 566.9745,69.1087 Z"
         style="fill-rule: evenodd; fill: #0095d3; "
         id="path3" />
      <path
         d="  M567.0535,635.5141 C574.3721,632.0020 587.7108,628.4900 595.0851,624.9793 C606.3218,619.3603 614.2310,611.8003 622.4186,602.8550 C628.8311,603.0296 631.6486,601.8993 633.6058,602.0281 C634.7818,602.1048 635.6484,602.6371 636.7959,604.1746 C645.3649,615.6416 684.2693,629.4544 718.4485,627.4985 C741.0865,626.2023 766.9283,613.2400 775.2360,592.8426 C786.8354,584.4272 790.8661,569.5015 795.2459,556.5032 C802.0100,543.9531 809.2197,538.1695 809.9946,519.6315 C814.2160,511.9204 817.7329,502.8006 816.3155,483.8133 C853.8136,440.2307 816.4938,392.3637 788.9251,353.1820 C804.7285,386.7163 815.9714,440.4672 799.4599,450.1020 C786.0234,460.3867 762.1214,456.2409 746.7117,449.1450 C726.8999,440.0215 708.3383,425.1441 680.2906,425.5390 C677.2267,426.1196 673.7395,426.6036 670.4825,427.4157 C664.2631,428.9680 657.8036,431.7286 651.5384,438.6796 C638.7902,452.8242 644.6159,468.5397 650.9195,484.8667 C656.6647,497.3810 648.1106,505.9350 638.2777,508.0432 C638.3471,490.3074 633.3582,470.9908 621.9482,453.7860 C652.3666,308.0533 675.6310,250.9934 692.0051,262.5829 C674.8895,253.5213 657.0014,240.5862 633.8967,249.5079 C624.9787,236.6768 617.2255,228.5745 591.4122,229.2851 C588.0785,224.2826 576.6388,217.1039 567.0535,210.6617 C557.4694,217.1039 546.0297,224.2826 542.6960,229.2851 C516.8827,228.5745 509.1295,236.6768 500.2115,249.5079 C477.1068,240.5862 459.2187,253.5213 442.1031,262.5829 C458.4772,250.9934 481.7416,308.0533 512.1600,453.7860 C500.7500,470.9908 495.7611,490.3074 495.8305,508.0432 C485.9976,505.9350 477.4435,497.3810 483.1887,484.8667 C489.4923,468.5397 495.3179,452.8242 482.5698,438.6796 C476.3046,431.7286 469.8451,428.9680 463.6257,427.4157 C460.3687,426.6036 456.8815,426.1196 453.8176,425.5390 C425.7698,425.1441 407.2083,440.0215 387.3965,449.1450 C371.9868,456.2409 348.0848,460.3867 334.6483,450.1020 C318.1368,440.4672 329.3797,386.7163 345.1831,353.1820 C317.6144,392.3637 280.2946,440.2307 317.7927,483.8133 C316.3753,502.8006 319.8922,511.9204 324.1136,519.6315 C324.8885,538.1695 332.0982,543.9531 338.8623,556.5032 C343.2420,569.5015 347.2727,584.4272 358.8721,592.8426 C367.1799,613.2400 393.0217,626.2023 415.6597,627.4985 C449.8389,629.4544 488.7433,615.6416 497.3123,604.1746 C500.3749,600.0746 501.4296,603.1348 511.6896,602.8550 C519.8772,611.8003 527.7864,619.3603 539.0230,624.9793 C546.3974,628.4900 559.7361,632.0020 567.0535,635.5141 Z"
         style="stroke-width: 3.9020; stroke: #0a120a; stroke-dasharray: none; stroke-linecap: butt; stroke-linejoin: miter; fill-rule: evenodd; fill: #ffffff; "
         id="path4" />
      <path
         d="  M816.3242,484.0460 C784.6926,495.1589 775.0937,494.5213 766.2029,493.5100"
         style="stroke-width: 3.9020; stroke: #0a120a; stroke-dasharray: none; stroke-linecap: butt; stroke-linejoin: miter; fill: none; "
         id="path5" />
      <path
         d="  M317.7840,484.0460 C349.4156,495.1589 359.0145,494.5213 367.9053,493.5100"
         style="stroke-width: 3.9020; stroke: #0a120a; stroke-dasharray: none; stroke-linecap: butt; stroke-linejoin: miter; fill: none; "
         id="path6" />
      <path
         d="  M813.2182,512.2113 C798.7654,523.2735 778.6267,528.9642 761.1905,527.8142"
         style="stroke-width: 3.9020; stroke: #0a120a; stroke-dasharray: none; stroke-linecap: butt; stroke-linejoin: miter; fill: none; "
         id="path7" />
      <path
         d="  M320.8900,512.2113 C335.3428,523.2735 355.4815,528.9642 372.9177,527.8142"
         style="stroke-width: 3.9020; stroke: #0a120a; stroke-dasharray: none; stroke-linecap: butt; stroke-linejoin: miter; fill: none; "
         id="path8" />
      <path
         d="  M797.3764,553.4158 C785.4205,561.8337 767.0756,565.4076 749.1021,563.3019"
         style="stroke-width: 3.9020; stroke: #0a120a; stroke-dasharray: none; stroke-linecap: butt; stroke-linejoin: miter; fill: none; "
         id="path9" />
      <path
         d="  M336.7318,553.4158 C348.6877,561.8337 367.0326,565.4076 385.0061,563.3019"
         style="stroke-width: 3.9020; stroke: #0a120a; stroke-dasharray: none; stroke-linecap: butt; stroke-linejoin: miter; fill: none; "
         id="path10" />
      <path
         d="  M779.6369,588.5941 C765.1457,593.6275 748.7753,596.5948 732.7800,594.1140"
         style="stroke-width: 3.9020; stroke: #0a120a; stroke-dasharray: none; stroke-linecap: butt; stroke-linejoin: miter; fill: none; "
         id="path11" />
      <path
         d="  M354.4713,588.5941 C368.9625,593.6275 385.3329,596.5948 401.3282,594.1140"
         style="stroke-width: 3.9020; stroke: #0a120a; stroke-dasharray: none; stroke-linecap: butt; stroke-linejoin: miter; fill: none; "
         id="path12" />
      <path
         d="  M710.0702,430.8992 C666.5632,428.7613 664.5404,454.1723 678.1799,486.6258 C692.8469,513.0779 691.2314,526.5045 690.5716,540.6986 C683.3074,579.6389 658.2332,590.2157 634.2854,601.8622"
         style="stroke-width: 3.9020; stroke: #0a120a; stroke-dasharray: none; stroke-linecap: butt; stroke-linejoin: miter; fill: none; "
         id="path13" />
      <path
         d="  M424.0380,430.8992 C467.5450,428.7613 469.5678,454.1723 455.9283,486.6258 C441.2613,513.0779 442.8768,526.5045 443.5366,540.6986 C450.8008,579.6389 476.1461,590.2157 500.0939,601.8622"
         style="stroke-width: 3.9020; stroke: #0a120a; stroke-dasharray: none; stroke-linecap: butt; stroke-linejoin: miter; fill: none; "
         id="path14" />
      <path
         d="  M567.0547,415.6553 C558.5266,395.5724 543.3607,392.3550 544.7311,372.5098 C545.7215,358.1672 556.4135,349.3816 567.0547,337.9258 C577.6947,349.3816 588.3867,358.1672 589.3771,372.5098 C590.7474,392.3550 575.5816,395.5724 567.0547,415.6553 Z"
         style="stroke-width: 3.9020; stroke: #0a120a; stroke-dasharray: none; stroke-linecap: butt; stroke-linejoin: miter; fill: none; "
         id="path15" />
      <path
         d="  M567.0547,555.9783 C576.0099,556.3510 580.7363,561.5379 580.7363,569.4247 C597.3246,561.8783 605.7388,551.5329 607.0027,537.2906 C610.5766,497.0121 566.9111,472.7090 567.0547,431.9898 C567.1971,472.7090 523.5316,497.0121 527.1055,537.2906 C528.3694,551.5329 536.7836,561.8783 553.3719,569.4247 C553.3719,561.5379 558.0983,556.3510 567.0547,555.9783 Z"
         style="stroke-width: 3.9020; stroke: #0a120a; stroke-dasharray: none; stroke-linecap: butt; stroke-linejoin: miter; fill-rule: evenodd; fill: #e41824; "
         id="path16" />
      <path
         d="  M567.0547,676.4078 C545.9134,661.3075 517.5883,653.0988 491.2650,659.2922 C456.2984,667.5195 459.9726,690.0312 413.6839,695.5945 C412.9338,684.3293 412.7456,671.3744 411.9942,660.1092 C446.5052,658.2325 448.2816,639.0186 481.2749,631.3831 C522.3221,623.5160 545.7351,634.7453 567.0547,646.5910 C588.3731,634.7453 611.7861,623.5160 652.8333,631.3831 C685.8266,639.0186 687.6030,658.2325 722.1140,660.1092 C721.3626,671.3744 721.1744,684.3293 720.4243,695.5945 C674.1356,690.0312 677.8098,667.5195 642.8432,659.2922 C616.5199,653.0988 588.1948,661.3075 567.0547,676.4078 Z"
         style="stroke-width: 3.9020; stroke: #0a120a; stroke-dasharray: none; stroke-linecap: butt; stroke-linejoin: miter; fill-rule: evenodd; fill: #ffffff; "
         id="path17" />
      <path
         d="  M720.4243,695.3127 C724.9305,701.6023 728.3100,705.3569 732.8157,711.9289 C714.2283,710.6144 701.8368,713.2422 689.4449,705.1700 C671.2277,696.6156 657.4185,682.8464 637.8728,678.0788 C610.7153,671.4548 589.0761,681.2866 567.0549,696.6564 C545.0320,681.2866 523.3928,671.4548 496.2352,678.0788 C476.6895,682.8464 462.8804,696.6156 444.6632,705.1700 C432.2712,713.2422 419.8798,710.6144 401.2923,711.9289 C405.7986,705.3569 409.1780,701.6023 413.6838,695.3127 C459.9724,690.0311 456.2985,667.5196 491.2651,659.2924 C517.5885,653.0987 545.9132,661.3075 567.0549,676.4079 C588.1949,661.3075 616.5200,653.0987 642.8434,659.2924 C677.8100,667.5196 674.1356,690.0311 720.4243,695.3127 Z"
         style="stroke-width: 3.9025; stroke: #0a120a; stroke-dasharray: none; stroke-linecap: butt; stroke-linejoin: miter; fill-rule: evenodd; fill: #ffffff; "
         id="path18" />
      <path
         d="  M591.1782,228.5498 L587.6774,337.0766"
         style="stroke-width: 3.9020; stroke: #0a120a; stroke-dasharray: none; stroke-linecap: butt; stroke-linejoin: miter; fill: none; "
         id="path19" />
      <path
         d="  M542.9299,228.5498 L546.4308,337.0766"
         style="stroke-width: 3.9020; stroke: #0a120a; stroke-dasharray: none; stroke-linecap: butt; stroke-linejoin: miter; fill: none; "
         id="path20" />
      <path
         d="  M634.9390,247.8045 L612.1834,358.0817"
         style="stroke-width: 3.9020; stroke: #0a120a; stroke-dasharray: none; stroke-linecap: butt; stroke-linejoin: miter; fill: none; "
         id="path21" />
      <path
         d="  M499.1691,247.8045 L521.9248,358.0817"
         style="stroke-width: 3.9020; stroke: #0a120a; stroke-dasharray: none; stroke-linecap: butt; stroke-linejoin: miter; fill: none; "
         id="path22" />
      <path
         d="  M587.8717,382.8577 C589.3300,402.9876 589.7187,431.5999 591.1782,451.7298 C592.0064,475.0561 621.4902,485.8558 636.6895,509.4941"
         style="stroke-width: 3.9020; stroke: #0a120a; stroke-dasharray: none; stroke-linecap: butt; stroke-linejoin: miter; fill: none; "
         id="path23" />
      <path
         d="  M546.2365,382.8577 C544.7782,402.9876 544.3895,431.5999 542.9299,451.7298 C542.1018,475.0561 512.6180,485.8558 497.4187,509.4941"
         style="stroke-width: 3.9020; stroke: #0a120a; stroke-dasharray: none; stroke-linecap: butt; stroke-linejoin: miter; fill: none; "
         id="path24" />
      <path
         d="  M588.5526,427.2238 C603.1379,435.9747 614.2235,443.2674 621.8108,454.3555"
         style="stroke-width: 3.9020; stroke: #0a120a; stroke-dasharray: none; stroke-linecap: butt; stroke-linejoin: miter; fill: none; "
         id="path25" />
      <path
         d="  M545.5556,427.2238 C530.9703,435.9747 519.8847,443.2674 512.2974,454.3555"
         style="stroke-width: 3.9020; stroke: #0a120a; stroke-dasharray: none; stroke-linecap: butt; stroke-linejoin: miter; fill: none; "
         id="path26" />
      <path
         d="  M569.2978,434.0279 C552.0857,471.9678 586.5112,516.7030 562.2961,542.7523"
         style="stroke-width: 3.9002; stroke: #0a120a; stroke-dasharray: none; stroke-linecap: butt; stroke-linejoin: miter; fill: none; "
         id="path27" />
      <path
         d="  M567.0534,577.7609 C570.4839,578.0745 573.9993,578.9578 577.4918,579.2726 C576.4035,586.8832 576.8466,595.0608 578.8225,602.6740 C581.3210,603.6680 583.8208,604.6621 586.3206,605.6574 C583.0665,609.2732 581.5311,614.0258 578.2770,617.6416 C575.0229,621.2574 570.0462,623.7378 567.0534,627.3536 C564.0619,623.7378 559.0852,621.2574 555.8311,617.6416 C552.5770,614.0258 551.0416,609.2732 547.7875,605.6574 C550.2873,604.6621 552.7871,603.6680 555.2856,602.6740 C557.2615,595.0608 557.7046,586.8832 556.6163,579.2726 C560.1088,578.9578 563.6242,578.0745 567.0534,577.7609 Z"
         style="stroke-width: 3.9003; stroke: #0a120a; stroke-dasharray: none; stroke-linecap: butt; stroke-linejoin: miter; fill: none; "
         id="path28" />
      <path
         d="  M350.2001,337.4063 L317.4620,321.4395 L312.5849,331.4392 L305.9142,328.1857 L318.9811,301.3947 L325.6518,304.6482 L320.7856,314.6252 L353.5236,330.5929 L350.2001,337.4063 Z Z M323.7282,291.3796 L327.9626,285.1025 L347.6474,298.3803 C350.7700,300.4866 352.8554,301.7765 353.8809,302.2465 C355.5508,302.9838 357.1789,303.1437 358.7552,302.7429 C360.3443,302.3401 361.7251,301.2593 362.9069,299.5075 C364.1087,297.7257 364.5951,296.0940 364.3505,294.6131 C364.1151,293.1368 363.4315,291.8859 362.3179,290.8714 C361.2006,289.8442 359.2025,288.3697 356.3253,286.4288 L336.2160,272.8647 L340.4504,266.5877 L359.5434,279.4663 C363.9105,282.4117 366.8795,284.6562 368.4522,286.2125 C370.0258,287.7688 371.1203,289.4133 371.7485,291.1650 C372.3684,292.9104 372.5348,294.8022 372.2448,296.8194 C371.9503,298.8439 370.9667,301.0884 369.3058,303.5501 C367.3031,306.5182 365.3868,308.5018 363.5478,309.4944 C361.7079,310.4871 359.8516,310.9935 357.9725,311.0226 C356.0944,311.0517 354.3536,310.7299 352.7573,310.0644 C350.3973,309.0736 347.1883,307.2036 343.1167,304.4582 L323.7282,291.3796 Z Z M386.7225,278.0618 L359.6543,253.6890 L352.2091,261.9578 L346.6947,256.9916 L366.6395,234.8405 L372.1548,239.8058 L364.7269,248.0555 L391.7960,272.4284 L386.7225,278.0618 Z Z M417.1906,246.7565 L383.6544,217.1275 L389.8415,212.4649 L412.4862,233.1106 L399.8366,204.9333 L407.0282,199.5144 L430.7111,220.0146 L416.8779,192.0919 L422.9668,187.5039 L442.0789,228.0026 L435.6618,232.8388 L409.9699,211.1531 L423.7477,241.8157 L417.1906,246.7565 Z Z M433.5610,181.7950 L440.3662,178.4760 L450.7759,199.8171 C452.4267,203.2034 453.5876,205.3633 454.2403,206.2824 C455.3185,207.7569 456.6484,208.7086 458.2138,209.1495 C459.7910,209.5950 461.5283,209.3495 463.4273,208.4241 C465.3581,207.4814 466.5954,206.3114 467.1235,204.9060 C467.6581,203.5097 467.6917,202.0843 467.2353,200.6498 C466.7808,199.2017 465.7872,196.9254 464.2664,193.8055 L453.6331,172.0053 L460.4392,168.6854 L470.5352,189.3856 C472.8443,194.1200 474.2933,197.5481 474.8769,199.6826 C475.4614,201.8171 475.5869,203.7888 475.2551,205.6187 C474.9196,207.4414 474.1169,209.1623 472.8579,210.7649 C471.5907,212.3703 469.6162,213.8221 466.9481,215.1239 C463.7300,216.6929 461.0774,217.4529 458.9883,217.3920 C456.8993,217.3320 455.0376,216.8429 453.3958,215.9284 C451.7549,215.0148 450.4077,213.8657 449.3587,212.4912 C447.8096,210.4522 445.9660,207.2296 443.8134,202.8152 L433.5610,181.7950 Z Z M487.2402,205.1951 L474.4215,163.2647 L489.6728,158.6021 C493.5054,157.4303 496.4035,156.9603 498.3698,157.1812 C500.3370,157.4012 502.1415,158.3130 503.7732,159.9166 C505.4077,161.5302 506.5977,163.5683 507.3559,166.0491 C508.3167,169.1927 508.3195,172.0417 507.3686,174.5734 C506.4141,177.0969 504.4387,179.1205 501.4515,180.6105 C503.3496,181.2050 505.0023,181.9795 506.4123,182.9468 C507.8222,183.9140 509.8840,185.7612 512.6102,188.4929 L519.4973,195.3336 L510.8348,197.9817 L502.8078,190.4547 C499.9479,187.7630 498.0516,186.1012 497.1071,185.4612 C496.1626,184.8212 495.2599,184.4676 494.3936,184.3803 C493.5290,184.3031 492.2709,184.5167 490.6000,185.0276 L489.1383,185.4749 L494.4899,202.9788 L487.2402,205.1951 Z Z M487.0902,178.7769 L492.4445,177.1406 C495.9181,176.0779 498.0398,175.2479 498.8043,174.6407 C499.5598,174.0361 500.0534,173.2334 500.2897,172.2435 C500.5179,171.2562 500.4497,170.1344 500.0634,168.8754 C499.6316,167.4600 498.9598,166.4264 498.0507,165.7546 C497.1426,165.0828 496.0644,164.8146 494.8145,164.9401 C494.2036,165.0310 492.4263,165.5210 489.4864,166.4200 L483.8403,168.1463 L487.0902,178.7769 Z Z M523.8962,195.2809 L516.2819,152.1014 L523.7390,150.7860 L531.3524,193.9664 L523.8962,195.2809 Z Z M552.7971,191.0701 L553.5625,147.2306 L561.1423,147.3625 L560.8414,164.6128 L575.6782,164.8710 L575.9791,147.6215 L583.5497,147.7543 L582.7843,191.5928 L575.2137,191.4610 L575.5482,172.2917 L560.7114,172.0326 L560.3769,191.2019 L552.7971,191.0701 Z Z M623.8784,198.1526 L615.7596,196.7209 L614.2624,186.3394 L599.4956,183.7358 L594.7203,193.0110 L586.8069,191.6156 L608.8107,150.9733 L616.6978,152.3641 L623.8784,198.1526 Z Z M613.1542,178.6496 L610.8870,161.7256 L603.0737,176.8724 L613.1542,178.6496 Z Z M627.7792,199.6817 L642.7751,158.4803 L649.7021,161.0011 L654.1165,193.7655 L664.1299,166.2528 L670.7451,168.6609 L655.7492,209.8622 L648.5994,207.2605 L644.1741,175.2197 L634.3945,202.0898 L627.7792,199.6817 Z Z M684.4465,174.7052 L696.5542,181.4159 C699.2814,182.9277 701.2259,184.3203 702.3895,185.6076 C703.9476,187.3357 704.9440,189.4284 705.3721,191.8837 C705.8112,194.3327 705.7094,196.9836 705.0712,199.8280 C704.4204,202.6779 703.1068,205.8942 701.1123,209.4932 C699.3651,212.6449 697.5197,215.1812 695.5797,217.0947 C693.2189,219.4274 690.7981,221.0392 688.3154,221.9146 C686.4419,222.5927 684.3274,222.7509 681.9647,222.3991 C680.2048,222.1346 678.1003,221.3182 675.6486,219.9601 L663.1899,213.0540 L684.4465,174.7052 Z Z M687.4718,184.8676 L673.3950,210.2604 L678.3376,213.0003 C680.1866,214.0248 681.5884,214.6503 682.5511,214.8566 C683.7947,215.1366 684.9792,215.1057 686.1055,214.7494 C687.2318,214.3930 688.4927,213.4694 689.8936,212.0049 C691.2871,210.5368 692.8180,208.3150 694.4607,205.3506 C696.1034,202.3870 697.1315,199.9917 697.5706,198.1563 C697.9997,196.3181 698.0615,194.7300 697.7497,193.4010 C697.4351,192.0592 696.7424,190.8929 695.6788,189.8947 C694.8925,189.1329 693.1471,188.0130 690.4426,186.5139 L687.4718,184.8676 Z Z M722.5407,252.8572 L715.9563,247.8955 L719.3362,237.9668 L707.3603,228.9425 L698.8951,235.0387 L692.4780,230.2034 L730.5341,203.9806 L736.9302,208.7996 L722.5407,252.8572 Z Z M721.8398,230.6116 L727.5032,214.5039 L713.6637,224.4518 L721.8398,230.6116 Z Z M728.1850,260.2433 L741.4628,247.4210 L750.1825,219.9028 L756.3523,226.2926 L750.0098,244.6920 L768.4928,238.8640 L774.5535,245.1402 L746.6663,252.8990 L733.4330,265.6777 L728.1850,260.2433 Z Z M763.6175,301.1093 L758.4286,294.7013 L764.1102,285.8852 L754.6733,274.2320 L744.9845,278.0991 L739.9283,271.8548 L783.1978,255.6171 L788.2385,261.8405 L763.6175,301.1093 Z Z M768.3183,279.3545 L777.7107,265.0950 L761.8767,271.3993 L768.3183,279.3545 Z Z M765.4475,305.3000 L804.1617,284.7153 L807.6215,291.2241 L788.9785,318.5260 L814.8295,304.7810 L818.1348,310.9962 L779.4216,331.5810 L775.8499,324.8639 L794.0002,298.0912 L768.7528,311.5153 L765.4475,305.3000 Z Z M782.4287,338.2408 L822.7892,321.1086 L825.7473,328.0784 L785.3868,345.2106 L782.4287,338.2408 Z"
         style="fill-rule: evenodd; fill: #1b1918; "
         id="path29" />
    </g>
  </g>
</svg>
